<svg width="120" height="120" viewBox="0 0 120 120" fill="none" xmlns="http://www.w3.org/2000/svg">
  <!-- Background circle with gaming theme gradient -->
  <circle cx="60" cy="60" r="60" fill="url(#gradient)" />
  
  <!-- Gradient definition -->
  <defs>
    <linearGradient id="gradient" x1="0%" y1="0%" x2="100%" y2="100%">
      <stop offset="0%" style="stop-color:#0a0a0f;stop-opacity:1" />
      <stop offset="50%" style="stop-color:#1a1a24;stop-opacity:1" />
      <stop offset="100%" style="stop-color:#12121a;stop-opacity:1" />
    </linearGradient>
    <linearGradient id="iconGradient" x1="0%" y1="0%" x2="100%" y2="100%">
      <stop offset="0%" style="stop-color:#00ffff;stop-opacity:1" />
      <stop offset="100%" style="stop-color:#00cccc;stop-opacity:1" />
    </linearGradient>
  </defs>
  
  <!-- Gaming controller icon -->
  <g transform="translate(30, 35)">
    <!-- Controller body -->
    <rect x="10" y="20" width="40" height="25" rx="12" fill="url(#iconGradient)" />
    
    <!-- Left grip -->
    <rect x="5" y="25" width="10" height="15" rx="5" fill="url(#iconGradient)" />
    
    <!-- Right grip -->
    <rect x="45" y="25" width="10" height="15" rx="5" fill="url(#iconGradient)" />
    
    <!-- D-pad -->
    <circle cx="20" cy="30" r="3" fill="#ffffff" />
    <circle cx="20" cy="35" r="2" fill="#ffffff" />
    <circle cx="17" cy="32.5" r="2" fill="#ffffff" />
    <circle cx="23" cy="32.5" r="2" fill="#ffffff" />
    
    <!-- Action buttons -->
    <circle cx="40" cy="28" r="2.5" fill="#ffffff" />
    <circle cx="40" cy="35" r="2.5" fill="#ffffff" />
    <circle cx="37" cy="31.5" r="2.5" fill="#ffffff" />
    <circle cx="43" cy="31.5" r="2.5" fill="#ffffff" />
    
    <!-- Center button -->
    <rect x="27" y="30" width="6" height="4" rx="2" fill="#ffffff" />
  </g>
  
  <!-- Glow effect -->
  <circle cx="60" cy="60" r="58" fill="none" stroke="url(#iconGradient)" stroke-width="2" opacity="0.5" />
</svg>
